<?xml version="1.0" encoding="UTF-8" standalone="no"?>
<!-- Created with Inkscape (http://www.inkscape.org/) -->

<svg
   width="51.377945mm"
   height="20.462044mm"
   viewBox="0 0 51.377945 20.462044"
   version="1.1"
   id="svg5"
   inkscape:version="1.2.1 (9c6d41e410, 2022-07-14)"
   sodipodi:docname="logo.svg"
   xmlns:inkscape="http://www.inkscape.org/namespaces/inkscape"
   xmlns:sodipodi="http://sodipodi.sourceforge.net/DTD/sodipodi-0.dtd"
   xmlns="http://www.w3.org/2000/svg"
   xmlns:svg="http://www.w3.org/2000/svg">
  <sodipodi:namedview
     id="namedview7"
     pagecolor="#b3b3b3"
     bordercolor="#000000"
     borderopacity="0.25"
     inkscape:showpageshadow="2"
     inkscape:pageopacity="0"
     inkscape:pagecheckerboard="true"
     inkscape:deskcolor="#9f9f9f"
     inkscape:document-units="mm"
     showgrid="false"
     showguides="true"
     inkscape:zoom="2.8649832"
     inkscape:cx="34.904219"
     inkscape:cy="39.616288"
     inkscape:window-width="1920"
     inkscape:window-height="991"
     inkscape:window-x="-9"
     inkscape:window-y="-9"
     inkscape:window-maximized="1"
     inkscape:current-layer="layer1" />
  <defs
     id="defs2" />
  <g
     inkscape:label="Layer 1"
     inkscape:groupmode="layer"
     id="layer1"
     transform="translate(-16.977844,-79.972168)">
    <g
       id="g5500"
       inkscape:export-filename="tag logo.png"
       inkscape:export-xdpi="96"
       inkscape:export-ydpi="96"
       style="fill:#ffffff">
      <g
         aria-label="G"
         id="text186"
         style="font-size:26.4583px;font-family:Ductape;-inkscape-font-specification:Ductape;text-align:center;text-anchor:middle;fill:#ffffff;stroke:#09023b;stroke-width:0.264583;stroke-linecap:round;stroke-opacity:0.960784;paint-order:markers stroke fill">
        <path
           d="m 66.999283,84.052813 -2.545061,2.519223 c -1.61058,-1.70532 -3.488155,-2.55798 -5.632724,-2.55798 -1.868962,0 -3.436478,0.620116 -4.702549,1.860349 -1.257458,1.240233 -1.886187,2.74746 -1.886187,4.521682 0,1.834511 0.654567,3.389109 1.963702,4.663792 1.309134,1.274684 2.92402,1.912026 4.844659,1.912026 1.248845,0 2.299598,-0.262688 3.152258,-0.788065 0.861273,-0.525376 1.554597,-1.347891 2.079974,-2.467546 l -47.295511,0.04617 v -3.397721 l 51.352106,-0.04618 0.02584,0.800983 c 0,1.662257 -0.430636,3.238386 -1.291909,4.728388 -0.861273,1.490002 -1.976621,2.626882 -3.346045,3.41064 -1.369424,0.783756 -2.975698,1.175636 -4.818821,1.175636 -1.972315,0 -3.733618,-0.42633 -5.283909,-1.278989 -1.541678,-0.861273 -2.764685,-2.08428 -3.669022,-3.669022 -0.895723,-1.584742 -1.343585,-3.294368 -1.343585,-5.128879 0,-2.514917 0.831128,-4.70255 2.493385,-6.562899 1.972315,-2.213471 4.538907,-3.320206 7.699778,-3.320206 1.653644,0 3.199629,0.305752 4.637954,0.917255 1.214395,0.516764 2.402951,1.403875 3.565669,2.661333 z"
           style="font-weight:bold;font-family:'Century Gothic';-inkscape-font-specification:'Century Gothic';fill:#ffffff;stroke:none"
           id="path4711"
           sodipodi:nodetypes="ccscsssccccccsssccscscsc" />
      </g>
      <text
         xml:space="preserve"
         style="font-size:27.7893px;font-family:Ductape;-inkscape-font-specification:Ductape;text-align:center;text-anchor:middle;fill:#ffffff;stroke:#09023b;stroke-width:0.277893;stroke-linecap:round;stroke-opacity:0.960784;paint-order:markers stroke fill"
         x="-39.633389"
         y="-80.47422"
         id="text4634"
         transform="scale(-1)"><tspan
           sodipodi:role="line"
           id="tspan4632"
           style="font-style:normal;font-variant:normal;font-weight:bold;font-stretch:normal;font-family:'Century Gothic';-inkscape-font-specification:'Century Gothic';fill:#ffffff;fill-opacity:1;stroke:none;stroke-width:0.277893"
           x="-39.633389"
           y="-80.47422">V</tspan></text>
      <text
         xml:space="preserve"
         style="font-size:27.7893px;font-family:Ductape;-inkscape-font-specification:Ductape;text-align:center;text-anchor:middle;fill:#ffffff;stroke:#09023b;stroke-width:0.277893;stroke-linecap:round;stroke-opacity:0.960784;paint-order:markers stroke fill"
         x="-24.679016"
         y="-79.972168"
         id="text5492"
         transform="scale(-1)"><tspan
           sodipodi:role="line"
           id="tspan5490"
           style="font-style:normal;font-variant:normal;font-weight:bold;font-stretch:normal;font-family:'Century Gothic';-inkscape-font-specification:'Century Gothic';fill:#ffffff;fill-opacity:1;stroke:none;stroke-width:0.277893"
           x="-24.679016"
           y="-79.972168">l</tspan></text>
    </g>
  </g>
</svg>
